<?xml version="1.0" encoding="UTF-8"?>
<svg xmlns="http://www.w3.org/2000/svg" xmlns:xlink="http://www.w3.org/1999/xlink" width="256px" height="256px" viewBox="0 0 256 256" version="1.1">
<g id="surface1">
<path style=" stroke:none;fill-rule:nonzero;fill:rgb(30.196078%,30.196078%,30.196078%);fill-opacity:1;" d="M 128 34.910156 C 76.425781 34.910156 34.910156 76.425781 34.910156 128 C 34.910156 179.574219 76.425781 221.089844 128 221.089844 C 179.574219 221.089844 221.089844 179.574219 221.089844 128 C 221.089844 76.425781 179.574219 34.910156 128 34.910156 Z M 128 46.546875 C 173.125 46.546875 209.453125 82.875 209.453125 128 C 209.453125 173.125 173.125 209.453125 128 209.453125 C 82.875 209.453125 46.546875 173.125 46.546875 128 C 46.546875 82.875 82.875 46.546875 128 46.546875 Z M 128 46.546875 "/>
<path style=" stroke:none;fill-rule:nonzero;fill:rgb(30.196078%,30.196078%,30.196078%);fill-opacity:1;" d="M 104.726562 162.910156 L 151.273438 128 L 104.726562 93.089844 Z M 104.726562 162.910156 "/>
</g>
</svg>
