<?xml version="1.0" encoding="UTF-8"?>
<svg xmlns="http://www.w3.org/2000/svg" xmlns:xlink="http://www.w3.org/1999/xlink" width="256px" height="256px" viewBox="0 0 256 256" version="1.1">
<g id="surface1">
<path style=" stroke:none;fill-rule:nonzero;fill:rgb(30.196078%,30.196078%,30.196078%);fill-opacity:1;" d="M 46.546875 34.910156 L 46.546875 104.726562 L 69.816406 104.726562 L 69.816406 151.273438 L 34.910156 151.273438 L 34.910156 221.089844 L 104.726562 221.089844 L 104.726562 151.273438 L 81.453125 151.273438 L 81.453125 104.726562 L 139.636719 104.726562 L 139.636719 81.453125 L 186.183594 81.453125 L 186.183594 162.910156 L 162.910156 162.910156 L 162.910156 221.089844 L 221.089844 221.089844 L 221.089844 162.910156 L 197.816406 162.910156 L 197.816406 69.816406 L 139.636719 69.816406 L 139.636719 34.910156 Z M 58.183594 46.546875 L 128 46.546875 L 128 93.089844 L 58.183594 93.089844 Z M 46.546875 162.910156 L 93.089844 162.910156 L 93.089844 209.453125 L 46.546875 209.453125 Z M 46.546875 162.910156 "/>
</g>
</svg>
