<?xml version="1.0" encoding="UTF-8"?>
<svg xmlns="http://www.w3.org/2000/svg" xmlns:xlink="http://www.w3.org/1999/xlink" width="256px" height="256px" viewBox="0 0 256 256" version="1.1">
<g id="surface1">
<path style=" stroke:none;fill-rule:nonzero;fill:rgb(30.196078%,30.196078%,30.196078%);fill-opacity:1;" d="M 256 69.816406 C 256 76.246094 250.789062 81.453125 244.363281 81.453125 C 237.9375 81.453125 232.726562 76.246094 232.726562 69.816406 C 232.726562 63.390625 237.9375 58.183594 244.363281 58.183594 C 250.789062 58.183594 256 63.390625 256 69.816406 Z M 256 69.816406 "/>
<path style=" stroke:none;fill-rule:nonzero;fill:rgb(30.196078%,30.196078%,30.196078%);fill-opacity:1;" d="M 256 128 C 256 134.425781 250.789062 139.636719 244.363281 139.636719 C 237.9375 139.636719 232.726562 134.425781 232.726562 128 C 232.726562 121.574219 237.9375 116.363281 244.363281 116.363281 C 250.789062 116.363281 256 121.574219 256 128 Z M 256 128 "/>
<path style=" stroke:none;fill-rule:nonzero;fill:rgb(30.196078%,30.196078%,30.196078%);fill-opacity:1;" d="M 256 186.183594 C 256 192.609375 250.789062 197.820312 244.363281 197.820312 C 237.9375 197.820312 232.726562 192.609375 232.726562 186.183594 C 232.726562 179.757812 237.9375 174.546875 244.363281 174.546875 C 250.789062 174.546875 256 179.757812 256 186.183594 Z M 256 186.183594 "/>
<path style=" stroke:none;fill-rule:nonzero;fill:rgb(30.196078%,30.196078%,30.196078%);fill-opacity:1;" d="M 0 34.910156 L 0 221.089844 L 116.363281 221.089844 L 116.363281 209.453125 L 11.636719 209.453125 L 11.636719 46.546875 L 69.816406 46.546875 L 93.089844 69.816406 L 174.546875 69.816406 L 174.546875 151.273438 L 186.183594 151.273438 L 186.183594 58.183594 L 104.816406 58.183594 L 81.546875 34.910156 L 81.453125 35.027344 L 81.453125 34.910156 Z M 0 34.910156 "/>
<path style=" stroke:none;fill-rule:nonzero;fill:rgb(30.196078%,30.196078%,30.196078%);fill-opacity:1;" d="M 157.089844 223.5 L 154.683594 221.089844 L 116.363281 182.773438 L 124.589844 174.546875 L 151.273438 201.226562 L 151.273438 151.273438 L 162.910156 151.273438 L 162.910156 201.226562 L 189.589844 174.546875 L 197.816406 182.773438 Z M 157.089844 223.5 "/>
</g>
</svg>
