<?xml version="1.0" encoding="UTF-8" standalone="no"?>
<svg id="svg2" xmlns:rdf="http://www.w3.org/1999/02/22-rdf-syntax-ns#" xmlns="http://www.w3.org/2000/svg" height="64" width="64" version="1.1" xmlns:cc="http://creativecommons.org/ns#" xmlns:dc="http://purl.org/dc/elements/1.1/" viewBox="0 0 64 64">
 <metadata id="metadata16">
  <rdf:RDF>
   <cc:Work rdf:about="">
    <dc:format>image/svg+xml</dc:format>
    <dc:type rdf:resource="http://purl.org/dc/dcmitype/StillImage"/>
    <dc:title/>
   </cc:Work>
  </rdf:RDF>
 </metadata>
 <path id="path4" fill-rule="evenodd" fill="#859900" d="M63,32c0,17.118-13.882,31-31,31s-31-13.882-31-31,13.882-31,31-31,31,13.882,31,31z"/>
 <g id="g6" fill-opacity="0.9020004" fill="#FFF" transform="matrix(2.893323,0,0,2.976,0.17332302,-0.736)">
  <path id="path8" d="M17.09,8.5071c-1.054-2.2869-3.416-3.7571-6.076-3.7571-2.72,0-5.2093,1.6087-6.1894,3.9986l2.0632,0.75284c0.65341-1.598,2.3118-2.6669,4.1264-2.6669,1.7507,0,3.299,0.95526,4.0163,2.4467l-1.505,0.5682,3.849,2.0916,1.126-3.963z"/>
  <path id="path10" d="m11.014,15.169c-1.7365,0-3.3168-0.98722-4.0234-2.468l1.481-0.54-3.8068-2.049-1.1648,3.86,1.4205-0.518c1.0333,2.28,3.4517,3.796,6.0935,3.796,2.7308,0,5.1491-1.5447,6.1612-3.9347l-2.0526-0.7706c-0.67472,1.5945-2.2869,2.6243-4.1087,2.6243z"/>
 </g>
</svg>
