<?xml version="1.0" encoding="UTF-8"?>
<svg xmlns="http://www.w3.org/2000/svg" xmlns:xlink="http://www.w3.org/1999/xlink" width="256px" height="256px" viewBox="0 0 256 256" version="1.1">
<g id="surface1">
<path style=" stroke:none;fill-rule:nonzero;fill:rgb(30.196078%,30.196078%,30.196078%);fill-opacity:1;" d="M 128 221.089844 C 76.429688 221.089844 34.910156 179.574219 34.910156 128 C 34.910156 111.222656 39.363281 95.542969 47.066406 81.976562 L 55.660156 90.566406 C 49.871094 101.773438 46.546875 114.472656 46.546875 128 C 46.546875 173.125 82.875 209.453125 128 209.453125 C 141.527344 209.453125 154.226562 206.128906 165.433594 200.339844 L 174.023438 208.933594 C 160.457031 216.636719 144.777344 221.089844 128 221.089844 Z M 208.933594 174.023438 L 200.339844 165.433594 C 206.128906 154.226562 209.453125 141.527344 209.453125 128 C 209.453125 82.875 173.125 46.546875 128 46.546875 C 114.472656 46.546875 101.773438 49.871094 90.566406 55.660156 L 81.976562 47.066406 C 95.542969 39.363281 111.222656 34.910156 128 34.910156 C 179.570312 34.910156 221.089844 76.425781 221.089844 128 C 221.089844 144.777344 216.636719 160.457031 208.933594 174.023438 Z M 208.933594 174.023438 "/>
<path style=" stroke:none;fill-rule:nonzero;fill:rgb(30.196078%,30.196078%,30.196078%);fill-opacity:1;" d="M 90.011719 55.042969 L 98.238281 46.8125 L 131.152344 79.726562 L 122.921875 87.953125 Z M 90.011719 55.042969 "/>
<path style=" stroke:none;fill-rule:nonzero;fill:rgb(30.196078%,30.196078%,30.196078%);fill-opacity:1;" d="M 124.945312 176.273438 L 133.175781 168.046875 L 166.085938 200.957031 L 157.859375 209.1875 Z M 124.945312 176.273438 "/>
</g>
</svg>
