<?xml version="1.0" encoding="UTF-8"?>
<svg xmlns="http://www.w3.org/2000/svg" xmlns:xlink="http://www.w3.org/1999/xlink" width="256px" height="256px" viewBox="0 0 256 256" version="1.1">
<g id="surface1">
<path style=" stroke:none;fill-rule:nonzero;fill:rgb(85.490196%,26.666667%,32.54902%);fill-opacity:1;" d="M 128 42.667969 C 80.871094 42.667969 42.667969 80.871094 42.667969 128 C 42.667969 175.128906 80.871094 213.332031 128 213.332031 C 175.128906 213.332031 213.332031 175.128906 213.332031 128 C 213.332031 80.871094 175.128906 42.667969 128 42.667969 Z M 128 52.144531 C 169.894531 52.144531 203.855469 86.105469 203.855469 128 C 203.855469 169.894531 169.894531 203.855469 128 203.855469 C 86.105469 203.855469 52.144531 169.894531 52.144531 128 C 52.144531 86.105469 86.105469 52.144531 128 52.144531 Z M 128 52.144531 "/>
<path style=" stroke:none;fill-rule:nonzero;fill:rgb(85.490196%,26.666667%,32.54902%);fill-opacity:1;" d="M 64 71.539062 L 71.539062 64 L 192 184.460938 L 184.460938 192 Z M 64 71.539062 "/>
</g>
</svg>
